<svg version="1" xmlns="http://www.w3.org/2000/svg" width="682.667" height="682.667" viewBox="0 0 512.000000 512.000000"><path d="M292.2 105.3l-46.3 46.3-16.7-16.8-16.7-16.8-21.1 21.1-21.1 21-20.9-21.1-21-21.1-21.2 21.3c-20.6 20.5-21.3 21.3-21 24.9.1 2.2.6 3.5 1.2 3.2.5-.4.7.1.3 1.1-.4 1-.3 1.5.3 1.1.6-.3 1-.1 1 .4 0 .6.5 1.1 1.2 1.1.9 0 .9-.3 0-1.2-.7-.7-1.2-1.6-1.2-2 0-.5 1.3.5 3 2.2 1.6 1.7 3 3.6 2.9 4.3 0 .7-.5.2-1.1-1.1-1.2-2.4-2.3-2.8-3.4-1-.4.7-.3.8.4.4.6-.3 1.6.3 2.2 1.4 1 1.8 1.4 1.9 2.8.8 1.3-1.1 1.5-1.1.9.4-.3 1-.2 1.8.4 1.8.6 0 .7.6.3 1.2-.6 1-.5 1 .8 0 1.2-1 1.8-1 2.7.2.9 1.1.9 1.6 0 2.2-.8.5-.9.3-.4-.6.5-.9.4-1.1-.4-.6-1.6 1.1-.3 2.6 1.6 1.9 1.2-.5 1.4-.3.8.7-.6 1-.4 1.2.8.7 1.1-.4 1.7.1 1.9 1.6.2 1.4 1 2.1 2 2.1 1-.1 1.5.3 1.1.9-.4.6 0 .8 1.1.4 1-.4 1.5-.3 1.1.3-.3.5.6 1.9 2 3.2 1.5 1.3 2.3 2.9 2 3.8-.3.9.1.7 1.1-.5 1.3-1.5 1.5-1.6 1.1-.3-.6 1.8 1.5 4.2 2.8 3 .5-.4.5-.1.1.5-.4.7-.2 1.3.4 1.3.6 0 .8.4.5 1-.3.5-.1 1 .5 1 1.3 0 4 2.5 4 3.7 0 .4-8.7 9.6-19.4 20.2-18.3 18.3-19.5 19.7-19.2 22.9.1 1.8.8 3.7 1.5 4.2.9.5-5 7.1-19.8 21.8-18.4 18.5-21.1 21.5-21.3 24.5-.3 4.6 3 8.9 5.6 7.5 1.3-.7 1.7-.7 1.2 0-.3.6-.3 1.2.1 1.5.5.2.3.2-.4.1-.7-.2-1 .3-.6 1.1.3.8.9 1.2 1.4.9.5-.3.9 0 .9.6s.5.8 1.3.4c.8-.5.8-.2-.2.9-.8 1-.9 1.7-.3 1.7.6 0 1.6-.8 2.2-1.8 1.1-1.6 1.1-1.6.6 0-.6 1.9 2 5.1 3.5 4.3.5-.4.9.1.9 1s-.4 1.3-1 1c-.5-.3-1-.1-1 .5 0 .7.8.9 2 .5 1.6-.5 2-.2 2 1.5 0 1.2.4 1.8 1 1.5.6-.4.7-1.2.3-1.8-.4-.7 0-.6 1 .2 1.8 1.5 2.3 2.6.7 1.6-.6-.3-1-.1-1 .4 0 .6.5 1.1 1.1 1.1.5 0 .7.4.4 1-.3.6.1.7 1 .4 1.1-.5 1.4-.2.9 1.2-.5 1.7-.4 1.7 1.1-.1 1.2-1.4 1.6-1.6 1.5-.5-.5 3.4 0 4.1 2.3 3.6 1.2-.3 1.6-.3 1 0-.7.3-1.3 1-1.3 1.5 0 .6.4.7 1 .4.5-.3 1 .2 1 1.2s1.3 2.7 3 3.8c1.6 1.1 3.4 3 4.1 4.2.7 1.3 2 2.5 3.1 2.9 1 .3 1.8 1.1 1.8 1.9 0 .7.7 1.5 1.5 1.9 1.3.5 1.3.2-.1-1.8-1-1.7-1.2-2.6-.4-3.1.6-.3 1-.3.9.2-.4 2.2.3 3.2 2 3 1.5-.1 1.7-.4.9-1.4-.6-.7-.7-1.4-.2-1.4.5-.1 1.5-.2 2.3-.3.8 0 1.6-.8 1.8-1.6.4-1.3.3-1.3-.7 0s-1.1 1.3-.7 0c.2-.8 1-1.5 1.8-1.5s1.4-.5 1.4-1.2c0-.6.4-1.5.9-2s.6-.3.2.4c-.4.7-.2 1.3.3 1.3.6 0 1.1-.5 1.1-1.1 0-.5.6-.7 1.3-.3.9.6.9.5-.1-.8-1-1.2-1-1.8.2-2.7 1.1-.9 1.5-.9 1.9.1.3.8.6.6.6-.5.1-1 .6-1.5 1.1-1.2.6.4 1 .3.9-.2-.1-.4-.1-1.5 0-2.3.1-1.1.3-1.2.9-.3.5.8 1.4.3 2.7-1.7 1.1-1.6 2.7-3.1 3.7-3.3 1.3-.4 1.6-1.1 1.1-2.4-.3-1-.2-1.5.2-1 1 .9 4.5-2.1 4.5-4 0-.7.3-1.3.8-1.3.4 0 1.8-1 3.2-2.3 1.4-1.2 1.9-1.8 1-1.2-1.3.9-1.3.8-.1-.8.7-.9 2.3-1.7 3.5-1.7 1.7 0 1.8-.2.6-1-1.5-.9-1.4-1.1 1.3-1.4.6-.1 1.1-.8.9-1.6-.3-1.1-.1-1.1 1.3 0 1.4 1.2 1.6 1.2 1.4-.1-.1-.7.1-2.2.5-3.1.7-1.5 1-1.5 2.2-.3.8.7 1.4 1.9 1.4 2.5 0 .6.7 1 1.6.8.9-.2 1.8.4 1.9 1.4.2.9.8 2.4 1.5 3.5 1 1.6 1.1 1.6.6 0-.3-.9-.1-1.7.4-1.7 1 0 1.4 1.5 1.1 3.4-.1.5.5.6 1.3.3 1.9-.7 3.4 1.2 3.1 4-.1 1.8.1 2 1.2 1.2.9-.9 1.3-.8 1.3 0 0 .7.5.9 1 .6.6-.4 1-.3.9.2-.3 2 .2 2.7 1.1 1.3.8-1.2 1-.9.8 1-.2 1.8.2 2.5 1.4 2.4 1.1-.1 1.4.4 1.1 1.4-.4 1-.2 1.3.5.8.7-.4 1.2-.2 1.2.4 0 .6.5.8 1.2.4.6-.4.8-.3.4.4-.3.6-.2 1.3.4 1.7.5.3 1 .1 1-.6s.3-.9.6-.6c.4.4.1 1.5-.7 2.4-.7 1-1 1.5-.6 1.2.5-.4 2 .5 3.4 1.9 2 2 2.7 2.2 3.4 1.1.5-.8.9-.9.9-.4 0 .6-.6 1.7-1.2 2.4-1.1 1-1 1.1.4.6 1.2-.5 2-.1 2.4.9.3.9 1.1 1.3 1.7.9.5-.3.7-.2.4.4-.4.6.1 1.9.9 2.9.9 1 1.3 1.3.9.6-.3-.6-.1-1.2.4-1.2.6 0 1.1.7 1.1 1.5 0 .9.6 1.2 1.8.9 1.4-.5 1.5-.4.2.5s-1.2 1.3.4 2.8c1.9 1.7 1.9 1.7.7 0-1.2-1.5-1.2-1.7.3-1.1.9.3 1.6 1.4 1.6 2.4 0 1.1.5 2.2 1.2 2.6.7.5.8.3.3-.6-.5-.9-.4-1.1.3-.6.7.4 1.2 1.4 1.2 2.2 0 .8.7 1.4 1.6 1.4.8 0 1.2.4.9 1-.6 1 .8 1.4 3.4 1 1.3-.2 1.3 0 0 1.6-.8 1.1-.9 1.5-.1 1 .7-.4 1.2-.1 1.2.9 0 .9.4 1.3 1 1 .5-.3 1-.1 1 .5s.4.8 1 .5c.5-.3 1 .1 1 .9 0 .9.5 1.6 1.1 1.6.5 0 .7.4.4 1-.3.5-.1 1 .5 1s.8.5.4 1.2c-.5.8 0 .7 1.1-.2 1-.8 1.6-1.1 1.3-.5-.6 1.1 5.8 7.6 6.7 6.7.3-.3.5.4.5 1.6 0 1.3-2.7 4.9-7.2 9.4-5.7 5.7-7.1 7.8-7.3 10.4-.1 1.8.1 3.3.4 3.2 2-.2 3.1.3 2.6 1.2-.3.5-.1 1 .5 1s.8.5.5 1.1c-.4.6 0 .9.8.7.9-.2 1.6.1 1.6.5 0 .5.9 1.7 2 2.6 1.2 1 2.1 2.4 2.1 3 0 .7.4 1 .8.7.5-.3 1.5.4 2.2 1.5 1.5 2 3.6 2.7 2.4.7-.5-.7-.3-.8.6-.3 1 .6.9 1.1-.6 2.3-1.8 1.4-1.8 1.4.4.9 1.8-.4 2.2-.2 1.8.9-.3.8.1 1.4.9 1.4s1.5.5 1.5 1.1c0 .5.5.7 1.2.3.8-.5.9-.2.5.9-.5 1.2-.1 1.7 1.3 1.7 1.1 0 2 .7 2 1.5 0 .9.7 1.8 1.5 2.1.8.4 1.2 1 .9 1.5-.3.5 0 .9.6.9.7 0 2.1 1.1 3.2 2.5s2.4 2.3 2.9 2c.5-.4.6.2.2 1.1-.4 1.2-.3 1.5.5 1 .7-.4 1.2-.2 1.2.4 0 .6.5.8 1.2.4.8-.5.9-.2.5 1-.4 1-.3 1.5.3 1.1.6-.3 1-.1 1 .5s.4.8 1 .5c.6-.4.7.1.3 1.1-.3 1-.2 1.5.3 1.2 1.2-.8 3.5 1.7 2.6 2.8-.4.5.2.2 1.3-.6s1.7-1.1 1.3-.6c-1.1 1.3 1.1 4.8 2.4 4 .7-.5.9-.2.5.9s.1 1.8 1.4 2.2c1 .4 1.7 1.1 1.4 1.6-.4.5.1.9.9.9.9 0 1.6.5 1.6 1.1 0 .5.5.7 1 .4.6-.4 1 .5 1 1.9s.5 2.6 1.1 2.6c.5 0 .7-.5.4-1-.3-.6.1-1 .9-1 .9 0 1.3.6 1 1.4-.7 1.9 2.6 3.6 6.3 3.4 3-.2 7.6-3.1 6.6-4.2-.3-.3.1-.6 1-.6 1 0 1.7-.7 1.7-1.6 0-.8.5-1.2 1-.9.6.3 1 .1 1-.5s.5-.8 1.3-.4c.7.5.6 0-.3-1.1-.8-1-1-1.6-.4-1.2.6.3 2.2-.4 3.5-1.6 1.3-1.2 2.7-2.1 3.2-1.9.5.1.6-.2.3-.7-.4-.5.5-1.8 1.9-2.9 1.3-1.1 2.1-2.2 1.8-2.6-.3-.3.1-.6 1-.6 1 0 1.7-.7 1.7-1.5s.3-1.4.8-1.3c.4.2 2.2-1.2 4-3 1.8-1.7 2.9-3.2 2.5-3.3-.4 0 .2-.4 1.5-1 1.3-.5 2-1.3 1.7-1.9-.3-.5.1-1 .9-1 .9 0 1.6-.8 1.6-1.7 0-.9.3-1.4.6-1 .3.3 2-1 3.7-2.9 1.8-1.9 3.9-3.4 4.7-3.4 1.3 0 1.3-.1 0-1-.8-.5-1.2-1-.7-1.1.4-.1 1-.2 1.5-.3 1-.1 5.4-4.6 4.5-4.6-.4 0 .2-.6 1.2-1.4 1.1-.8 2.4-1.2 3-.9.5.4.7.2.2-.2-.9-1.1 4.3-6.6 5.5-5.9.5.3.8.2.7-.3-.4-1.6 1.3-4.3 2.8-4.3.8 0 1.1.5.8 1-.3.5.1 1 .9 1 1.5 0 2.1 1.2 1.7 3.4-.1.5.6.3 1.5-.5 1.2-.9 1.5-.9 1-.2-.4.8-.2 1.3.4 1.3.6 0 .8.5.5 1-.3.6-.1 1 .5 1 1.5 0 4.1 2.6 3.3 3.4-.4.3.1.6 1 .6 1.6 0 4.3 3.7 3.9 5.2-.1.4.5.5 1.3.2.9-.4 1.5 0 1.5 1 0 2.3 3.7 2 4.5-.4.3-1.1.9-1.9 1.3-1.8.4.2 2.1-1.2 3.9-3 1.7-1.7 2.8-3.2 2.5-3.2-.4 0 .5-.8 2.1-1.8 1.5-1 2.5-2.1 2.1-2.4-.3-.4.4-.9 1.5-1.3 1.2-.3 1.9-1 1.6-1.5-.3-.5.4-1.1 1.5-1.5 1.1-.4 1.8-1.1 1.5-1.6-.4-.5.1-.9.9-.9s1.8-.9 2.1-2c.4-1.1 1-1.8 1.5-1.5.5.3 1.1-.4 1.5-1.5.4-1.1.9-1.9 1.3-1.7.8.3 7.1-6 6.6-6.6-.2-.2.7-1 2.1-1.7 1.3-.7 2.7-2.2 3.1-3.2.3-1 .9-1.6 1.4-1.3.5.3 1.2-.4 1.5-1.6.4-1.1.9-1.9 1.1-1.6.5.5 7.4-6.1 7.5-7.2 0-.3 1.8-2.1 4.1-3.9 2.2-1.7 3.7-3.2 3.3-3.2-.4 0 1-1.4 3.1-3.1 2.2-1.7 4.4-4 5.1-5.2.7-1.2 1.2-1.8 1.3-1.4 0 1 7-6.3 7-7.3 0-.4 1.1-1.3 2.5-2 1.3-.7 2.7-2.1 3-3.1.3-1 1.4-2.1 2.4-2.4 1.7-.5 3.3-2.9 4.4-6.5.3-1-6.1-8.2-18.4-20.5-10.4-10.3-18.9-19.1-18.9-19.5 0-.4 1.1-1.3 2.5-2s2.5-1.7 2.5-2.1c0-1.3 10.8-11.8 11.4-11.1.3.3.6.1.6-.5 0-1.3 12.8-14.3 14.1-14.3.5 0 .9-.5.9-1 0-1.3 7.9-9 9.3-9 .6 0 .7-.3.4-.7-.4-.3 0-1.1.8-1.7.9-.6 1.7-2.3 1.8-3.9.2-2.3-3-5.9-22.3-25.2-22.2-22.2-22.4-22.5-20.2-24.1 1.2-.8 2-2 1.7-2.5-.4-.5-.1-.9.5-.9s5.4-4.4 10.7-9.8c5.3-5.3 10-9.6 10.5-9.4.5.1.7-.1.4-.6-.3-.5.4-1.4 1.4-2.2 1-.8 1.6-1.8 1.3-2.4-.4-.6.2-.4 1.2.4 1.1.8 1.6 1 1.1.3-.4-.8.2-2.2 1.4-3.5 1.2-1.3 2-3.3 1.8-4.6-.2-1.4-15.8-17.8-44-46-24-24-44.7-44.7-46-45.9l-2.4-2.2-46.2 46.2zM50 302c0 .5-.5 1-1.1 1-.5 0-.7-.5-.4-1 .3-.6.8-1 1.1-1 .2 0 .4.4.4 1zm118.5 28.8c-.3.3-1.1 0-1.8-.7-.9-1-.8-1.1.6-.5 1 .3 1.5.9 1.2 1.2zm-87.2 2.6c.7-.4.8-.3.4.1-.4.5.3 1.5 1.5 2.2 1.3.7 1.8 1.2 1.2 1.3-1.6 0-6.4-3.9-6.4-5.3 0-.7.5-.4 1.1.6.6.9 1.6 1.4 2.2 1.1zm5.7 6.8c0 .5.5.6 1 .3.6-.3 1-.4 1-.1 0 1.5-2 1.3-3.6-.5s-1.6-1.9-.1-1.3c.9.3 1.7 1 1.7 1.6z"/><path d="M252.5 74l-8.5 8.5 8.5 8.5 8.5 8.4 8.5-8.4 8.4-8.5-8.4-8.6-8.4-8.5-8.6 8.6zM170.7 101.8c-12.5 12.6-12.8 12.9-12.6 16.9.2 2.9.7 3.9 1.6 3.6.7-.3 1.6.2 1.9 1.1.8 2.2 2.5 2 1.8-.2-.5-1.4-.4-1.4.4-.2.7.9.7 1.9.2 2.6-.7.7-.2 1.5 1.5 2.4 1.3.7 2.2 1.7 1.9 2.2-.3.4.2.8 1.1.8.9 0 1.3-.5 1-1-.3-.6-.1-1 .5-1 .7 0 1 .7.6 1.5-.7 1.9.3 4.5 1.6 4.5.6 0 .5-.7-.2-1.5-1.1-1.3-1-1.4.4-.9 1.5.6 2 1.7 1.7 3.6 0 .5.9.8 2.1.8 1.2 0 1.8.3 1.5.6-.4.4.3 1.5 1.4 2.5 1.2 1 1.8 2.3 1.4 2.8-.4.7 0 .8 1.1.4 1.2-.4 1.5-.3 1 .6-.4.7 5.1-4.6 12.2-11.8 7.1-7.1 13.2-14 13.5-15.3.5-2.1-1.2-4.2-12.1-15.1L183.5 89l-12.8 12.8zm-2.7 24.8c0 .8-1.9 1.3-2.4.6-.3-.5.1-.9.9-.9s1.5.2 1.5.3zM15.9 207.1L.3 223l16 16 16 16.1 16.2-16L64.6 223l-16-16c-8.7-8.8-16.2-16-16.5-15.9-.3 0-7.6 7.2-16.2 16zM459.2 286.2c-9.4 9.4-17.1 17.3-17 17.4 1.9 2.3 34.3 34.4 34.7 34.4.9 0 34.1-33.6 34.1-34.5 0-.7-33.5-34.5-34.1-34.5-.2 0-8.2 7.7-17.7 17.2zM147.6 311.8c-.3.5.1.9.9.9s1.2-.4.9-.9c-.3-.4-.7-.8-.9-.8-.2 0-.6.4-.9.8zM122.9 314.7c-1.3 1.6-1.2 1.7.4.4.9-.7 1.7-1.5 1.7-1.7 0-.8-.8-.3-2.1 1.3zM170.7 360.1c-7.1 7.3-8.2 9.4-6.3 11.8.6.9.7 1.2.1.9-.6-.4-1.1.2-1.1 1.2s.3 1.7.7 1.4c.4-.2.9-.1 1.2.3.2.5.2.3.1-.4-.2-.7.3-1 1.1-.6.8.3 1.2.9.9 1.4-.3.5 0 .9.7.9s.9.8.6 2.1c-.4 1.7-.3 1.9.6 1 .6-.6 1.8-1.1 2.6-1.1 1.1 0 1 .4-.5 1.5-1.8 1.3-1.8 1.4.5.8 1.7-.4 2.2-.3 1.7.5-.4.7-.3 1.2.3 1.2.5 0 1.3.9 1.6 2 .3 1.1 1.4 2 2.3 2 1.5 0 1.5-.2.2-1s-1.2-1 .3-1c2.6 0 14.7-13 14.7-15.7 0-2-12.9-16.3-14.8-16.3-.4 0-3.8 3.2-7.5 7.1z"/></svg>